<?xml version="1.0" encoding="iso-8859-1"?>
<!-- Generator: Adobe Illustrator 19.0.0, SVG Export Plug-In . SVG Version: 6.00 Build 0)  -->
<svg version="1.1" id="Capa_1" xmlns="http://www.w3.org/2000/svg" xmlns:xlink="http://www.w3.org/1999/xlink" x="0px" y="0px"
	 viewBox="0 0 496 496" style="enable-background:new 0 0 496 496;" xml:space="preserve">
<g>
	<g>
		<g>
			<path d="M344,72v16h-16v80h16v16h16v-16h16v16h16v-17.472c9.288-3.312,16-12.112,16-22.528c0-6.144-2.32-11.752-6.128-16
				c3.808-4.248,6.128-9.856,6.128-16c0-10.416-6.712-19.216-16-22.528V72h-16v16h-16V72H344z M384,152h-40v-16h40
				c4.416,0,8,3.592,8,8S388.416,152,384,152z M384,104c4.416,0,8,3.592,8,8s-3.584,8-8,8h-40v-16H384z"/>
			<path d="M280,128c0,20.248,7.064,40.024,19.88,55.688l12.376-10.136C301.776,160.744,296,144.56,296,128
				c0-39.696,32.296-72,72-72c16.56,0,32.744,5.776,45.544,16.256l10.144-12.384C408.024,47.056,388.248,40,368,40
				C319.48,40,280,79.48,280,128z"/>
			<path d="M368,200c-16.56,0-32.744-5.776-45.544-16.256l-10.144,12.384C327.976,208.944,347.752,216,368,216
				c48.52,0,88-39.48,88-88c0-20.248-7.064-40.024-19.88-55.688l-12.376,10.136C434.224,95.256,440,111.44,440,128
				C440,167.696,407.704,200,368,200z"/>
			<path d="M361.144,0c-23.504,0-45.608,9.152-62.224,25.776L164.688,160L336,331.312l134.224-134.224
				C486.84,180.464,496,158.368,496,134.864V0H361.144z M480,134.864c0,19.232-7.496,37.312-21.088,50.912L336,308.688L187.312,160
				L310.224,37.088c13.6-13.6,31.68-21.088,50.912-21.088H480V134.864z"/>
			<path d="M440,319.432c0,8.544-3.328,16.584-9.376,22.632L424,348.688l-42.344-42.344l-11.312,11.312L412.688,360L400,372.688
				l-42.344-42.344l-11.312,11.312L400,395.312l41.936-41.936c9.072-9.072,14.064-21.128,14.064-33.944V232h-16V319.432z"/>
			<path d="M165.656,138.344L123.312,96L136,83.312l42.344,42.344l11.312-11.312L147.312,72l6.624-6.624
				C159.984,59.328,168.024,56,176.568,56H264V40h-87.432c-12.816,0-24.864,4.992-33.944,14.056L100.688,96l53.656,53.656
				L165.656,138.344z"/>
			
				<rect x="189.485" y="207.999" transform="matrix(-0.7071 -0.7071 0.7071 -0.7071 325.2427 566.7175)" width="181.014" height="16"/>
			<path d="M176,320c0,17.648,14.352,32,32,32s32-14.352,32-32c0-9.6-4.336-18.128-11.056-24l18.208-36.424l-14.312-7.16
				l-18.152,36.304c-2.16-0.456-4.392-0.72-6.688-0.72c-11,0-20.712,5.584-26.48,14.056l-53.808-19.224
				C127.8,281.888,128,280.968,128,280c0-17.648-14.352-32-32-32s-32,14.352-32,32c0,11.096,5.68,20.872,14.272,26.616
				L34.576,432.264C33.712,432.192,32.88,432,32,432c-17.648,0-32,14.352-32,32s14.352,32,32,32s32-14.352,32-32
				c0-11.096-5.68-20.872-14.272-26.616l43.704-125.648C94.288,311.808,95.12,312,96,312c11,0,20.712-5.576,26.472-14.056
				l53.816,19.224C176.2,318.112,176,319.032,176,320z M208,304c8.824,0,16,7.176,16,16c0,8.824-7.176,16-16,16
				c-8.824,0-16-7.176-16-16C192,311.176,199.176,304,208,304z M32,480c-8.824,0-16-7.176-16-16c0-8.824,7.176-16,16-16
				s16,7.176,16,16C48,472.824,40.824,480,32,480z M96,296c-8.824,0-16-7.176-16-16c0-8.824,7.176-16,16-16s16,7.176,16,16
				C112,288.824,104.824,296,96,296z"/>
			
				<rect x="263.998" y="316.109" transform="matrix(-0.7071 -0.7071 0.7071 -0.7071 192.806 847.8476)" width="16" height="135.767"/>
			
				<rect x="199.995" y="436.688" transform="matrix(-0.7071 -0.7071 0.7071 -0.7071 38.2861 911.8586)" width="16" height="22.624"/>
			<rect x="160.832" y="360" transform="matrix(0.7071 -0.7071 0.7071 0.7071 -189.9126 277.5098)" width="158.39" height="16"/>
			
				<rect x="160.03" y="428.683" transform="matrix(-0.7071 -0.7071 0.7071 -0.7071 -24.2777 869.9342)" width="16" height="22.624"/>
			<rect x="123.992" y="164.438" transform="matrix(0.7071 0.7071 -0.7071 0.7071 182.9335 -33.5725)" width="16" height="79.191"/>
			<rect x="151.997" y="190.062" transform="matrix(0.7071 0.7071 -0.7071 0.7071 205.2549 -47.5266)" width="16" height="67.879"/>
		</g>
	</g>
</g>
<g>
</g>
<g>
</g>
<g>
</g>
<g>
</g>
<g>
</g>
<g>
</g>
<g>
</g>
<g>
</g>
<g>
</g>
<g>
</g>
<g>
</g>
<g>
</g>
<g>
</g>
<g>
</g>
<g>
</g>
</svg>
